HIERARCHY
ROOT mixamorig:Hips
{
	OFFSET 0.000000 201.639420 0.000000
	CHANNELS 6 Xposition Yposition Zposition Xrotation Yrotation Zrotation
	JOINT mixamorig:Spine
	{
		OFFSET 0.006200 19.524994 -2.481800
		CHANNELS 3 Xrotation Yrotation Zrotation
		JOINT mixamorig:Spine1
		{
			OFFSET -0.000900 22.835007 -2.825400
			CHANNELS 3 Xrotation Yrotation Zrotation
			JOINT mixamorig:Spine2
			{
				OFFSET -0.020600 26.552490 -3.193300
				CHANNELS 3 Xrotation Yrotation Zrotation
				JOINT mixamorig:Neck
				{
					OFFSET -0.060000 30.701813 1.352200
					CHANNELS 3 Xrotation Yrotation Zrotation
					JOINT mixamorig:Head
					{
						OFFSET -0.087200 22.547607 3.670900
						CHANNELS 3 Xrotation Yrotation Zrotation
						JOINT mixamorig:HeadTop_End
						{
							OFFSET -0.830600 40.355194 7.893500
							CHANNELS 3 Xrotation Yrotation Zrotation
							End Site
							{
								OFFSET 0.000000 30.592346 0.000000
							}
						}
						JOINT mixamorig:RightEye
						{
							OFFSET -6.302100 18.118591 16.197100
							CHANNELS 3 Xrotation Yrotation Zrotation
							End Site
							{
								OFFSET 0.000000 30.592346 0.000000
							}
						}
						JOINT mixamorig:LeftEye
						{
							OFFSET 6.741500 18.382690 16.401899
							CHANNELS 3 Xrotation Yrotation Zrotation
							End Site
							{
								OFFSET 0.000000 30.592346 0.000000
							}
						}
					}
				}
				JOINT mixamorig:LeftShoulder
				{
					OFFSET 11.924900 18.230499 1.425400
					CHANNELS 3 Xrotation Yrotation Zrotation
					JOINT mixamorig:LeftArm
					{
						OFFSET 25.435989 -0.697632 -5.229300
						CHANNELS 3 Xrotation Yrotation Zrotation
						JOINT mixamorig:LeftForeArm
						{
							OFFSET 54.684776 0.000000 0.000000
							CHANNELS 3 Xrotation Yrotation Zrotation
							JOINT mixamorig:LeftHand
							{
								OFFSET 55.098175 0.000000 0.000000
								CHANNELS 3 Xrotation Yrotation Zrotation
								JOINT mixamorig:LeftHandMiddle1
								{
									OFFSET 23.369751 0.000000 0.000000
									CHANNELS 3 Xrotation Yrotation Zrotation
									JOINT mixamorig:LeftHandMiddle2
									{
										OFFSET 6.378677 0.000000 0.000000
										CHANNELS 3 Xrotation Yrotation Zrotation
										JOINT mixamorig:LeftHandMiddle3
										{
											OFFSET 6.148331 0.000000 0.000000
											CHANNELS 3 Xrotation Yrotation Zrotation
											JOINT mixamorig:LeftHandMiddle4
											{
												OFFSET 6.582504 0.000000 0.000000
												CHANNELS 3 Xrotation Yrotation Zrotation
												End Site
												{
													OFFSET -1.168900 6.395691 1.028606
												}
											}
										}
									}
								}
								JOINT mixamorig:LeftHandThumb1
								{
									OFFSET 7.235672 -3.848206 5.434273
									CHANNELS 3 Xrotation Yrotation Zrotation
									JOINT mixamorig:LeftHandThumb2
									{
										OFFSET 6.568451 -3.792297 3.792300
										CHANNELS 3 Xrotation Yrotation Zrotation
										JOINT mixamorig:LeftHandThumb3
										{
											OFFSET 6.063080 -3.500519 3.500518
											CHANNELS 3 Xrotation Yrotation Zrotation
											JOINT mixamorig:LeftHandThumb4
											{
												OFFSET 4.793182 -2.767334 2.767349
												CHANNELS 3 Xrotation Yrotation Zrotation
												End Site
												{
													OFFSET 0.101639 6.054260 1.275483
												}
											}
										}
									}
								}
								JOINT mixamorig:LeftHandIndex1
								{
									OFFSET 23.101074 -0.309540 4.992809
									CHANNELS 3 Xrotation Yrotation Zrotation
									JOINT mixamorig:LeftHandIndex2
									{
										OFFSET 6.226883 0.000000 0.000000
										CHANNELS 3 Xrotation Yrotation Zrotation
										JOINT mixamorig:LeftHandIndex3
										{
											OFFSET 6.094330 0.000000 0.000000
											CHANNELS 3 Xrotation Yrotation Zrotation
											JOINT mixamorig:LeftHandIndex4
											{
												OFFSET 5.482605 0.000000 0.000000
												CHANNELS 3 Xrotation Yrotation Zrotation
												End Site
												{
													OFFSET -1.427902 5.233032 0.797164
												}
											}
										}
									}
								}
								JOINT mixamorig:LeftHandRing1
								{
									OFFSET 22.299240 0.021149 -3.964172
									CHANNELS 3 Xrotation Yrotation Zrotation
									JOINT mixamorig:LeftHandRing2
									{
										OFFSET 6.321869 0.000000 0.000000
										CHANNELS 3 Xrotation Yrotation Zrotation
										JOINT mixamorig:LeftHandRing3
										{
											OFFSET 5.899796 0.000000 0.000000
											CHANNELS 3 Xrotation Yrotation Zrotation
											JOINT mixamorig:LeftHandRing4
											{
												OFFSET 6.517899 0.000000 0.000000
												CHANNELS 3 Xrotation Yrotation Zrotation
												End Site
												{
													OFFSET -1.637299 6.232208 0.980890
												}
											}
										}
									}
								}
								JOINT mixamorig:LeftHandPinky1
								{
									OFFSET 20.463791 -0.302338 -8.562233
									CHANNELS 3 Xrotation Yrotation Zrotation
									JOINT mixamorig:LeftHandPinky2
									{
										OFFSET 6.908646 0.000000 0.000000
										CHANNELS 3 Xrotation Yrotation Zrotation
										JOINT mixamorig:LeftHandPinky3
										{
											OFFSET 4.622849 0.000000 0.000000
											CHANNELS 3 Xrotation Yrotation Zrotation
											JOINT mixamorig:LeftHandPinky4
											{
												OFFSET 5.216080 0.000000 0.000000
												CHANNELS 3 Xrotation Yrotation Zrotation
												End Site
												{
													OFFSET -0.606308 5.116241 0.814926
												}
											}
										}
									}
								}
							}
						}
					}
				}
				JOINT mixamorig:RightShoulder
				{
					OFFSET -12.001300 18.284088 1.348900
					CHANNELS 3 Xrotation Yrotation Zrotation
					JOINT mixamorig:RightArm
					{
						OFFSET -25.308500 -0.751312 -5.164599
						CHANNELS 3 Xrotation Yrotation Zrotation
						JOINT mixamorig:RightForeArm
						{
							OFFSET -54.684429 0.000000 0.000000
							CHANNELS 3 Xrotation Yrotation Zrotation
							JOINT mixamorig:RightHand
							{
								OFFSET -55.150291 0.000000 0.000000
								CHANNELS 3 Xrotation Yrotation Zrotation
								JOINT mixamorig:RightHandMiddle1
								{
									OFFSET -23.317566 0.000000 0.000000
									CHANNELS 3 Xrotation Yrotation Zrotation
									JOINT mixamorig:RightHandMiddle2
									{
										OFFSET -6.378403 0.000000 0.000000
										CHANNELS 3 Xrotation Yrotation Zrotation
										JOINT mixamorig:RightHandMiddle3
										{
											OFFSET -6.148193 0.000000 0.000000
											CHANNELS 3 Xrotation Yrotation Zrotation
											JOINT mixamorig:RightHandMiddle4
											{
												OFFSET -6.583389 0.000000 0.000000
												CHANNELS 3 Xrotation Yrotation Zrotation
												End Site
												{
													OFFSET 1.171692 6.395905 1.029786
												}
											}
										}
									}
								}
								JOINT mixamorig:RightHandThumb1
								{
									OFFSET -7.190521 -3.860474 5.435846
									CHANNELS 3 Xrotation Yrotation Zrotation
									JOINT mixamorig:RightHandThumb2
									{
										OFFSET -6.567429 -3.791718 3.791708
										CHANNELS 3 Xrotation Yrotation Zrotation
										JOINT mixamorig:RightHandThumb3
										{
											OFFSET -6.062469 -3.500153 3.500166
											CHANNELS 3 Xrotation Yrotation Zrotation
											JOINT mixamorig:RightHandThumb4
											{
												OFFSET -4.792618 -2.767029 2.767022
												CHANNELS 3 Xrotation Yrotation Zrotation
												End Site
												{
													OFFSET -0.100327 6.053253 1.276754
												}
											}
										}
									}
								}
								JOINT mixamorig:RightHandIndex1
								{
									OFFSET -23.048981 -0.310791 4.992554
									CHANNELS 3 Xrotation Yrotation Zrotation
									JOINT mixamorig:RightHandIndex2
									{
										OFFSET -6.227539 0.000000 0.000000
										CHANNELS 3 Xrotation Yrotation Zrotation
										JOINT mixamorig:RightHandIndex3
										{
											OFFSET -6.095047 0.000000 0.000000
											CHANNELS 3 Xrotation Yrotation Zrotation
											JOINT mixamorig:RightHandIndex4
											{
												OFFSET -5.484772 0.000000 0.000000
												CHANNELS 3 Xrotation Yrotation Zrotation
												End Site
												{
													OFFSET 1.420593 5.237305 0.797056
												}
											}
										}
									}
								}
								JOINT mixamorig:RightHandRing1
								{
									OFFSET -22.246323 0.020569 -3.963762
									CHANNELS 3 Xrotation Yrotation Zrotation
									JOINT mixamorig:RightHandRing2
									{
										OFFSET -6.322128 0.000000 0.000000
										CHANNELS 3 Xrotation Yrotation Zrotation
										JOINT mixamorig:RightHandRing3
										{
											OFFSET -5.900024 0.000000 0.000000
											CHANNELS 3 Xrotation Yrotation Zrotation
											JOINT mixamorig:RightHandRing4
											{
												OFFSET -6.518356 0.000000 0.000000
												CHANNELS 3 Xrotation Yrotation Zrotation
												End Site
												{
													OFFSET 1.636398 6.232697 0.982186
												}
											}
										}
									}
								}
								JOINT mixamorig:RightHandPinky1
								{
									OFFSET -20.411011 -0.303314 -8.561701
									CHANNELS 3 Xrotation Yrotation Zrotation
									JOINT mixamorig:RightHandPinky2
									{
										OFFSET -6.907349 0.000000 0.000000
										CHANNELS 3 Xrotation Yrotation Zrotation
										JOINT mixamorig:RightHandPinky3
										{
											OFFSET -4.623840 0.000000 0.000000
											CHANNELS 3 Xrotation Yrotation Zrotation
											JOINT mixamorig:RightHandPinky4
											{
												OFFSET -5.218353 0.000000 0.000000
												CHANNELS 3 Xrotation Yrotation Zrotation
												End Site
												{
													OFFSET 0.602097 5.118835 0.816273
												}
											}
										}
									}
								}
							}
						}
					}
				}
			}
		}
	}
	JOINT mixamorig:LeftUpLeg
	{
		OFFSET 18.168400 -13.561905 -0.039000
		CHANNELS 3 Xrotation Yrotation Zrotation
		JOINT mixamorig:LeftLeg
		{
			OFFSET 0.577358 -80.825211 -3.695000
			CHANNELS 3 Xrotation Yrotation Zrotation
			JOINT mixamorig:LeftFoot
			{
				OFFSET -0.577356 -83.370262 -6.520700
				CHANNELS 3 Xrotation Yrotation Zrotation
				JOINT mixamorig:LeftToeBase
				{
					OFFSET 0.750401 -20.798306 25.135401
					CHANNELS 3 Xrotation Yrotation Zrotation
					JOINT mixamorig:LeftToe_End
					{
						OFFSET -0.000500 0.001200 19.917799
						CHANNELS 3 Xrotation Yrotation Zrotation
						End Site
						{
							OFFSET 0.000000 19.917805 0.000000
						}
					}
				}
			}
		}
	}
	JOINT mixamorig:RightUpLeg
	{
		OFFSET -18.162500 -13.585098 -0.041000
		CHANNELS 3 Xrotation Yrotation Zrotation
		JOINT mixamorig:RightLeg
		{
			OFFSET -0.595024 -80.945297 -3.631900
			CHANNELS 3 Xrotation Yrotation Zrotation
			JOINT mixamorig:RightFoot
			{
				OFFSET 0.595024 -83.218193 -6.561200
				CHANNELS 3 Xrotation Yrotation Zrotation
				JOINT mixamorig:RightToeBase
				{
					OFFSET -0.753601 -20.807106 25.115000
					CHANNELS 3 Xrotation Yrotation Zrotation
					JOINT mixamorig:RightToe_End
					{
						OFFSET 0.000299 0.001700 19.918200
						CHANNELS 3 Xrotation Yrotation Zrotation
						End Site
						{
							OFFSET 0.000000 19.918203 0.000000
						}
					}
				}
			}
		}
	}
}
MOTION
Frames: 5
Frame Time: 0.033333
-0.012693 173.029327 -0.641722 -5.398707 -46.252012 -0.056129 9.475559 7.180767 -1.803785 2.187715 0.989897 -0.915631 2.202831 0.982774 -0.894152 0.084650 13.220565 4.538679 8.920927 20.138140 -4.130233 0.000000 0.000000 0.000000 0.000000 0.000000 0.000000 0.000000 0.000000 0.000000 1.117176 3.546357 -8.633313 -53.487006 4.935505 -51.502987 0.000349 -106.358080 0.000335 1.988601 -7.706153 -15.869248 -0.461466 3.841582 -39.722683 6.450734 5.820343 -95.892857 2.182890 4.561566 -51.127729 -0.000000 -0.000000 -0.000000 -6.141205 -11.690814 -6.761681 9.914073 42.595522 3.409868 -0.422813 8.108104 27.509108 -0.000004 -0.000001 0.000001 0.255310 3.378209 -45.814331 5.654082 5.847745 -88.067441 2.162141 4.544815 -50.866382 -0.000000 -0.000001 -0.000001 0.469724 4.966838 -39.799434 8.181058 5.368619 -113.503004 3.200493 5.218112 -63.022982 -0.000000 0.000000 0.000004 -3.762430 9.063693 -45.253814 5.342535 5.828997 -85.005311 8.716851 5.103348 -119.369181 0.000000 -0.000000 -0.000000 3.036125 13.027205 -5.371409 -48.713698 27.172837 83.457071 0.000326 105.988335 -0.000354 -8.345362 17.548096 8.775675 -0.761626 -2.932898 39.031051 5.133891 -4.632767 95.881649 1.739733 -3.631684 51.181329 0.000002 -0.000001 -0.000001 -7.341121 13.749659 7.412336 9.855768 -44.489093 -3.903271 -0.115793 -14.513075 -28.973857 -0.000002 -0.000003 0.000001 -0.124381 -2.384778 45.108851 4.500571 -4.654511 88.071178 1.723223 -3.618374 50.920129 -0.000000 -0.000003 -0.000004 0.154751 -4.068815 39.122658 6.509732 -4.273604 113.462843 2.549580 -4.153902 63.067337 -0.000000 -0.000002 0.000004 -4.198881 -8.025508 44.637766 4.252912 -4.639630 85.014839 6.935964 -4.062622 119.322312 0.000002 0.000001 -0.000000 -34.130872 7.615476 16.986778 59.306915 -6.173493 4.298889 -22.400391 -8.372812 -14.231611 -1.594040 -0.000010 -0.000005 -0.000000 -0.000000 -0.000000 -27.091527 -9.870264 -27.856906 58.168862 -9.793235 -7.732355 -23.346235 -5.496043 20.853005 -0.013000 0.000009 -0.000004 -0.000000 0.000001 -0.000000 
-0.702577 174.405548 -0.826963 -5.981446 -47.759531 -0.439657 9.086022 6.128902 -2.015472 3.866577 1.028666 -1.616366 3.878495 1.024550 -1.597443 0.084195 11.891356 4.112017 6.365171 23.874740 -5.174027 -0.000000 0.000000 0.000000 -0.000000 0.000000 0.000000 -0.000000 0.000000 0.000000 0.508162 2.262794 -7.341403 -47.088215 7.291201 -49.486930 0.000029 -111.942409 0.000022 -0.143244 -6.079698 -13.692946 -0.461466 3.841579 -39.722683 6.450736 5.820341 -95.892857 2.182893 4.561566 -51.127726 0.000001 -0.000002 0.000002 -6.141205 -11.690820 -6.761683 9.914076 42.595522 3.409886 -0.422811 8.108097 27.509111 -0.000004 -0.000002 0.000001 0.255313 3.378207 -45.814334 5.654086 5.847745 -88.067441 2.162142 4.544813 -50.866382 -0.000001 -0.000004 0.000001 0.469725 4.966836 -39.799437 8.181056 5.368620 -113.503004 3.200490 5.218115 -63.022982 -0.000000 0.000000 0.000002 -3.762428 9.063692 -45.253814 5.342535 5.828996 -85.005311 8.716851 5.103347 -119.369181 -0.000001 0.000001 0.000001 4.405901 14.312157 -3.464423 -49.199420 31.070162 78.982648 0.000035 106.953850 -0.000063 -10.561148 17.735143 8.965327 -0.761625 -2.932899 39.031048 5.133888 -4.632769 95.881649 1.739736 -3.631687 51.181326 0.000001 0.000002 0.000001 -7.341118 13.749657 7.412338 9.855763 -44.489096 -3.903278 -0.115793 -14.513078 -28.973857 -0.000003 0.000002 -0.000001 -0.124383 -2.384782 45.108847 4.500567 -4.654514 88.071178 1.723223 -3.618374 50.920133 0.000001 -0.000000 0.000001 0.154752 -4.068815 39.122661 6.509735 -4.273605 113.462843 2.549581 -4.153903 63.067337 0.000002 0.000000 0.000004 -4.198884 -8.025510 44.637762 4.252916 -4.639631 85.014839 6.935961 -4.062620 119.322312 0.000002 0.000000 0.000000 -31.844429 7.627842 16.645999 57.063905 -4.424427 4.340058 -21.966477 -8.088021 -15.311474 -1.704812 -0.000005 -0.000003 0.000000 -0.000003 -0.000000 -26.763244 -10.295555 -27.738879 56.879353 -8.429882 -7.776622 -22.987802 -5.089902 19.569269 -0.044397 0.000010 0.000002 -0.000000 -0.000000 0.000000 
-1.468173 175.992157 -0.938623 -6.629470 -49.584322 -0.940834 8.515275 4.759201 -2.210805 5.684953 0.966944 -2.382440 5.694353 0.966495 -2.365280 1.006289 10.597204 2.917615 5.572829 28.469649 -6.722755 -0.000003 -0.000000 -0.000000 -0.000003 -0.000000 -0.000000 -0.000003 -0.000000 -0.000000 -0.161853 1.394320 -5.057525 -37.506092 10.551981 -50.389393 0.000035 -117.966287 0.000040 -0.979275 -6.045403 -9.963147 -0.461468 3.841577 -39.722683 6.450734 5.820344 -95.892857 2.182891 4.561567 -51.127729 -0.000000 -0.000002 0.000004 -6.141208 -11.690817 -6.761681 9.914074 42.595515 3.409872 -0.422816 8.108106 27.509106 0.000004 0.000002 -0.000001 0.255310 3.378207 -45.814331 5.654087 5.847746 -88.067441 2.162143 4.544813 -50.866382 0.000000 0.000001 0.000001 0.469722 4.966838 -39.799430 8.181058 5.368619 -113.502998 3.200493 5.218114 -63.022982 -0.000000 0.000002 -0.000002 -3.762430 9.063693 -45.253814 5.342532 5.828997 -85.005311 8.716850 5.103344 -119.369181 0.000000 0.000000 -0.000001 5.700986 15.346315 -1.018437 -47.447528 36.475816 73.075818 -0.000002 107.573622 0.000007 -12.580874 18.489978 9.853658 -0.761628 -2.932901 39.031051 5.133888 -4.632769 95.881642 1.739737 -3.631687 51.181326 -0.000001 -0.000003 0.000001 -7.341123 13.749659 7.412334 9.855773 -44.489093 -3.903276 -0.115795 -14.513075 -28.973857 -0.000002 -0.000000 -0.000001 -0.124383 -2.384780 45.108851 4.500567 -4.654516 88.071178 1.723223 -3.618376 50.920133 0.000002 -0.000001 -0.000001 0.154751 -4.068817 39.122664 6.509734 -4.273602 113.462843 2.549579 -4.153898 63.067337 0.000001 0.000001 0.000003 -4.198883 -8.025511 44.637766 4.252912 -4.639631 85.014839 6.935961 -4.062618 119.322312 0.000000 -0.000000 -0.000000 -28.997636 7.143420 15.724327 54.370536 -1.621011 4.702213 -21.470584 -7.580524 -16.889584 -1.845942 -0.000009 0.000001 -0.000000 -0.000002 -0.000000 -26.259740 -10.525583 -27.493740 55.353117 -7.053294 -7.610373 -22.481884 -4.585901 18.064577 -0.141898 -0.000007 -0.000011 0.000000 -0.000000 0.000001 
-1.838703 177.706390 -1.463270 -7.958760 -50.618218 -1.395099 8.004134 3.042248 -2.325685 7.659535 0.763347 -3.125897 7.667240 0.766812 -3.109051 1.972432 8.205905 1.795746 0.640533 30.817837 -5.707519 0.000000 0.000000 -0.000000 0.000000 0.000000 -0.000000 0.000000 0.000000 -0.000000 -0.834617 0.440569 -1.563685 -33.125540 11.436804 -52.239431 0.000052 -121.347381 0.000062 -2.635863 -5.855770 -7.938969 -0.461463 3.841577 -39.722679 6.450736 5.820342 -95.892857 2.182892 4.561568 -51.127729 -0.000001 -0.000001 0.000000 -6.141200 -11.690819 -6.761679 9.914077 42.595522 3.409876 -0.422809 8.108106 27.509109 0.000000 0.000002 0.000000 0.255310 3.378209 -45.814327 5.654084 5.847745 -88.067441 2.162141 4.544813 -50.866382 -0.000000 0.000001 0.000001 0.469725 4.966838 -39.799434 8.181061 5.368621 -113.502998 3.200493 5.218113 -63.022982 -0.000001 0.000000 0.000001 -3.762431 9.063693 -45.253814 5.342528 5.828997 -85.005311 8.716853 5.103343 -119.369181 -0.000001 -0.000001 -0.000000 6.940740 16.782156 0.967077 -46.879341 38.369076 65.750194 0.000152 110.619066 -0.000144 -14.435157 15.973166 12.318922 -0.761626 -2.932901 39.031051 5.133888 -4.632767 95.881649 1.739735 -3.631685 51.181329 0.000003 0.000002 0.000003 -7.341121 13.749656 7.412336 9.855777 -44.489089 -3.903276 -0.115795 -14.513075 -28.973861 -0.000001 -0.000002 0.000001 -0.124380 -2.384778 45.108857 4.500569 -4.654512 88.071178 1.723225 -3.618374 50.920136 0.000001 -0.000001 0.000001 0.154750 -4.068818 39.122664 6.509734 -4.273605 113.462836 2.549580 -4.153898 63.067337 -0.000000 0.000001 0.000002 -4.198882 -8.025508 44.637766 4.252914 -4.639632 85.014832 6.935961 -4.062620 119.322312 0.000002 0.000000 -0.000000 -26.056596 7.666007 14.346290 51.131687 -0.021597 5.522851 -20.265721 -7.355305 -17.980663 -1.865327 0.000020 -0.000002 0.000000 -0.000002 -0.000000 -24.884602 -10.112892 -27.891050 53.736452 -6.358347 -6.674961 -21.791095 -4.177214 16.906752 -0.180455 0.000003 0.000000 -0.000000 0.000001 0.000000 
-1.104841 176.585800 -14.375977 0.217166 -41.395710 2.959880 7.939897 1.090631 -2.389128 9.791636 0.414479 -3.764403 9.798460 0.423235 -3.746791 0.957942 4.175889 2.133266 -16.104915 27.674627 -0.107813 -0.000000 -0.000000 -0.000000 -0.000000 -0.000000 -0.000000 -0.000000 -0.000000 -0.000000 -1.282971 -1.587549 2.789265 -43.562325 10.340072 -48.543158 0.000001 -121.802121 -0.000001 -9.131017 -0.505150 -12.084629 -0.461466 3.841584 -39.722683 6.450740 5.820343 -95.892864 2.182895 4.561563 -51.127733 -0.000000 -0.000000 0.000000 -6.141205 -11.690814 -6.761685 9.914070 42.595525 3.409875 -0.422815 8.108106 27.509109 -0.000002 0.000001 -0.000001 0.255312 3.378212 -45.814331 5.654084 5.847744 -88.067441 2.162142 4.544810 -50.866379 0.000001 0.000001 0.000003 0.469724 4.966840 -39.799427 8.181058 5.368622 -113.503004 3.200490 5.218118 -63.022982 -0.000002 -0.000000 -0.000001 -3.762428 9.063692 -45.253814 5.342535 5.828997 -85.005311 8.716852 5.103345 -119.369181 -0.000002 0.000002 0.000002 8.162480 18.973866 1.618498 -54.632067 35.703567 59.213915 0.000030 117.574207 -0.000022 -15.211332 7.959497 13.636126 -0.761626 -2.932898 39.031051 5.133888 -4.632769 95.881649 1.739737 -3.631692 51.181333 0.000004 0.000002 0.000000 -7.341121 13.749658 7.412336 9.855768 -44.489093 -3.903282 -0.115795 -14.513069 -28.973857 -0.000001 0.000001 0.000001 -0.124381 -2.384779 45.108854 4.500569 -4.654511 88.071184 1.723223 -3.618374 50.920133 0.000001 0.000002 -0.000005 0.154749 -4.068819 39.122658 6.509733 -4.273604 113.462836 2.549579 -4.153900 63.067344 0.000001 0.000001 0.000003 -4.198883 -8.025506 44.637766 4.252914 -4.639631 85.014832 6.935961 -4.062625 119.322298 0.000000 0.000000 0.000002 -37.662558 3.709118 14.865365 48.762114 -6.387787 8.959858 -13.411339 -7.956757 -19.866287 -1.952124 0.000002 -0.000000 -0.000000 -0.000000 0.000000 -32.747786 -13.010955 -24.457190 59.334659 -5.721839 -4.801357 -23.409922 -11.685705 12.357688 -0.022709 -0.000011 -0.000005 0.000000 -0.000001 -0.000000 
